<svg xmlns="http://www.w3.org/2000/svg" version="1.1" xmlns:xlink="http://www.w3.org/1999/xlink" xmlns:svgjs="http://svgjs.dev/svgjs" width="1000" height="1000" viewBox="0 0 1000 1000"><rect width="1000" height="1000" fill="#ffffff"></rect><g transform="matrix(0.7,0,0,0.7,149.57575757575756,282.1265587044535)"><svg viewBox="0 0 396 247" data-background-color="#ffffff" preserveAspectRatio="xMidYMid meet" height="623" width="1000" xmlns="http://www.w3.org/2000/svg" xmlns:xlink="http://www.w3.org/1999/xlink"><g id="tight-bounds" transform="matrix(1,0,0,1,0.2400000000000091,-0.09999999999999432)"><svg viewBox="0 0 395.52 247.2" height="247.2" width="395.52"><g><svg></svg></g><g><svg viewBox="0 0 395.52 247.2" height="247.2" width="395.52"><g transform="matrix(1,0,0,1,143.83574292803968,47.215199999999996)"><svg viewBox="0 0 107.8485141439206 152.7696" height="152.7696" width="107.8485141439206"><g><svg viewBox="0 0 107.8485141439206 152.7696" height="152.7696" width="107.8485141439206"><g><svg viewBox="0 0 107.8485141439206 152.7696" height="152.7696" width="107.8485141439206"><g><svg viewBox="0 0 107.8485141439206 152.7696" height="152.7696" width="107.8485141439206"><g id="textblocktransform"><svg viewBox="0 0 107.8485141439206 152.7696" height="152.7696" width="107.8485141439206" id="textblock"><g><svg viewBox="0 0 107.8485141439206 152.7696" height="152.7696" width="107.8485141439206"><g transform="matrix(1,0,0,1,0,0)"><svg width="107.8485141439206" viewBox="3.950000047683716 -40 28.450000762939453 40.29999923706055" height="152.7696" data-palette-color="#50a060"><path d="M9.9-21.2L25.15-39.1Q25.9-40 26.85-40L26.85-40Q27.9-40 29-39.05L29-39.05Q29.55-38.5 29.93-37.95 30.3-37.4 30.3-36.85L30.3-36.85Q30.3-35.95 29.65-35.3L29.65-35.3 22.95-27.5 9.9-12.15 9.9-2.1Q9.9 0.3 6.9 0.3L6.9 0.3Q3.95 0.3 3.95-2.1L3.95-2.1 3.95-37.55Q3.95-39.95 6.9-39.95L6.9-39.95Q9.9-39.95 9.9-37.55L9.9-37.55 9.9-21.2ZM27.55-1.5L18.05-15.35Q17.55-16.05 17.55-17.05L17.55-17.05Q17.55-18.55 18.8-19.45L18.8-19.45 18.75-19.45Q19.75-20.15 20.75-20.15L20.75-20.15Q21.7-20.15 22.35-19.05L22.35-19.05 32-4.95 31.95-5Q32.4-4.3 32.4-3.5L32.4-3.5Q32.4-2.2 31.1-1.2L31.1-1.2 31.15-1.2Q30.6-0.85 30.1-0.65 29.6-0.45 29.2-0.45L29.2-0.45Q28.8-0.45 28.38-0.75 27.95-1.05 27.55-1.5L27.55-1.5Z" opacity="1" transform="matrix(1,0,0,1,0,0)" fill="#000000" class="undefined-text-0" data-fill-palette-color="primary" id="text-0"></path></svg></g></svg></g></svg></g></svg></g></svg></g></svg></g></svg></g><g><path d="M0 123.6c0-68.262 55.338-123.6 123.6-123.6 30.402 0 58.24 10.976 79.768 29.183l-11.147 0c-19.26-14.022-42.974-22.294-68.621-22.295-25.647 0-49.361 8.272-68.621 22.295h-1.055v0.776c-28.548 21.276-47.036 55.299-47.036 93.641 0 38.341 18.488 72.364 47.036 93.641v0.776l1.055 0c19.26 14.022 42.974 22.294 68.621 22.295 25.647 0 49.361-8.272 68.621-22.295h11.147c-21.528 18.206-49.366 29.183-79.768 29.183-68.262 0-123.6-55.338-123.6-123.6z" fill="#000000" stroke="transparent" data-fill-palette-color="tertiary"></path></g></svg></g><defs></defs></svg><rect width="395.52" height="247.2" fill="none" stroke="none" visibility="hidden"></rect></g></svg></g></svg>